<?xml version="1.0" encoding="UTF-8" standalone="no"?>
<svg
   viewBox="0 0 65 16"
   version="1.1"
   id="svg2"
   sodipodi:docname="headerlogo.svg"
   inkscape:version="1.3.2 (091e20e, 2023-11-25, custom)"
   xmlns:inkscape="http://www.inkscape.org/namespaces/inkscape"
   xmlns:sodipodi="http://sodipodi.sourceforge.net/DTD/sodipodi-0.dtd"
   xmlns="http://www.w3.org/2000/svg"
   xmlns:svg="http://www.w3.org/2000/svg">
  <defs
     id="defs2" />
  <sodipodi:namedview
     id="namedview2"
     pagecolor="#505050"
     bordercolor="#eeeeee"
     borderopacity="1"
     inkscape:showpageshadow="0"
     inkscape:pageopacity="0"
     inkscape:pagecheckerboard="0"
     inkscape:deskcolor="#505050"
     inkscape:zoom="15.969231"
     inkscape:cx="25.392582"
     inkscape:cy="7.2952794"
     inkscape:window-width="1920"
     inkscape:window-height="1051"
     inkscape:window-x="1911"
     inkscape:window-y="-9"
     inkscape:window-maximized="1"
     inkscape:current-layer="svg2" />
  <style
     id="style1">.st0{fill:#fff}</style>
  <path
     class="st0"
     d="M 4.6,3.1 H 1 v 4.1 l 2.4,2.2 v -4 h 1.3 c 0.8,0 1.2,0.4 1.2,1 v 3 c 0,0.6 -0.4,1.1 -1.2,1.1 H 1 v 2.3 h 3.6 c 1.9,0 3.7,-1 3.7,-3.2 V 6.4 C 8.3,4.1 6.5,3.1 4.6,3.1 Z M 23.3,9.7 V 6.3 c 0,-1.2 2.1,-1.5 2.8,-0.3 l 2,-0.8 C 27.3,3.5 25.9,3 24.7,3 22.8,3 20.9,4.1 20.9,6.3 v 3.3 c 0,2.2 1.9,3.3 3.8,3.3 1.2,0 2.6,-0.6 3.4,-2.2 L 26,9.7 c -0.5,1.5 -2.7,1.1 -2.7,0 z M 16.8,6.8 C 16.1,6.6 15.6,6.4 15.5,5.9 15.5,4.8 17.3,4.7 18.3,5.8 L 19.9,4.6 C 18.9,3.4 17.8,3 16.6,3 c -1.8,0 -3.5,1 -3.5,2.9 0,1.9 1.4,2.8 2.9,3.1 0.8,0.1 1.7,0.4 1.6,1 -0.1,1 -2.2,1 -3.1,-0.2 L 13,11.3 c 0.9,1.2 2.1,1.8 3.3,1.8 1.8,0 3.7,-1 3.8,-2.9 C 20.2,7.7 18.5,7.1 16.8,6.8 Z M 9.6,12.9 H 12 V 3.1 H 9.6 Z M 50.3,3.1 h -3.6 v 4.1 l 2.4,2.2 v -4 h 1.3 c 0.8,0 1.2,0.4 1.2,1 v 3 c 0,0.6 -0.4,1.1 -1.2,1.1 h -3.7 v 2.3 h 3.6 c 1.9,0 3.7,-1 3.7,-3.2 V 6.4 C 54,4.1 52.2,3.1 50.3,3.1 Z M 32.7,3 c -2,0 -4,1.1 -4,3.3 v 3.3 c 0,2.2 2,3.3 4,3.3 2,0 4,-1.1 4,-3.3 V 6.3 c 0,-2.2 -2,-3.3 -4,-3.3 z m 1.6,6.7 c 0,0.7 -0.8,1.1 -1.5,1.1 -0.8,0 -1.6,-0.3 -1.6,-1.1 V 6.3 c 0,-0.7 0.8,-1.1 1.5,-1.1 0.8,0 1.6,0.3 1.6,1.1 z M 45.4,6.3 C 45.3,4 43.8,3.1 41.8,3.1 H 38 v 9.7 h 2.4 v -3 h 0.4 l 2.2,3.1 h 3 L 43.4,9.6 c 1.2,-0.4 2,-1.5 2,-3.3 z M 41.8,7.7 H 40.4 V 5.4 h 1.4 c 1.6,0 1.6,2.3 0,2.3 z"
     id="path1"
     sodipodi:nodetypes="sccccssssccssssssccssssccsccccssccccscccccccsccccssssccsssssssssssssssssscscccccccccsccss" />
</svg>
